
nColumns=19
nRows=76
DataType=double
version=3
OpenSimVersion=4.4-2022-10-11-798caa840
endheader
time	ground_force_calcn_r_vx	ground_force_calcn_r_vy	ground_force_calcn_r_vz	ground_force_calcn_r_px	ground_force_calcn_r_py	ground_force_calcn_r_pz	ground_force_calcn_r_mx	ground_force_calcn_r_my	ground_force_calcn_r_mz	ground_force_calcn_l_vx	ground_force_calcn_l_vy	ground_force_calcn_l_vz	ground_force_calcn_l_px	ground_force_calcn_l_py	ground_force_calcn_l_pz	ground_force_calcn_l_mx	ground_force_calcn_l_my	ground_force_calcn_l_mz
0	1.46073	83.631	3.57053	0.0740749	0	-0.146404	0.00588216	0.33677	0.014378	0	0	0	0	0	0	0	0	0
0.01	-2.70184	118.849	4.22771	0.0810616	0	-0.146819	-0.008458179999999999	0.372059	0.0132349	0	0	0	0	0	0	0	0	0
0.02	-8.44745	160.051	4.87106	0.0871203	0	-0.14711	-0.0222048	0.420708	0.012804	0	0	0	0	0	0	0	0	0
0.03	-15.9669	206.811	5.44538	0.0919276	0	-0.147302	-0.037157	0.481276	0.0126721	0	0	0	0	0	0	0	0	0
0.04	-25.2284	258.398	5.85126	0.096026	0	-0.147413	-0.0538745	0.551802	0.0124952	0	0	0	0	0	0	0	0	0
0.05	-35.9266	313.821	5.93307	0.0996966	0	-0.147437	-0.0720664	0.629505	0.0119013	0	0	0	0	0	0	0	0	0
0.06	-47.6012	371.802	5.50225	0.10309	0	-0.147364	-0.0910543	0.711205	0.010525	0	0	0	0	0	0	0	0	0
0.07000000000000001	-59.7417	430.795	4.38227	0.106298	0	-0.147188	-0.110031	0.793428	0.008071160000000001	0	0	0	0	0	0	0	0	0
0.08	-71.8129	489.136	2.46417	0.109364	0	-0.146915	-0.128153	0.872883	0.00439741	0	0	0	0	0	0	0	0	0
0.09	-83.28230000000001	545.202	-0.246109	0.112303	0	-0.146564	-0.14479	0.947861	-0.000427872	0	0	0	0	0	0	0	0	0
0.1	-93.6669	597.563	-3.61188	0.115118	0	-0.146154	-0.159875	1.01995	-0.00616491	0	0	0	0	0	0	0	0	0
0.11	-102.567	645.074	-7.38389	0.117797	0	-0.145715	-0.17399	1.09427	-0.0125257	0	0	0	0	0	0	0	0	0
0.12	-109.672	686.902	-11.2554	0.120324	0	-0.145268	-0.187917	1.17697	-0.0192856	0	0	0	0	0	0	0	0	0
0.13	-114.777	722.538	-14.9428	0.122684	0	-0.14483	-0.201817	1.27047	-0.0262746	0	0	0	0	0	0	0	0	0
0.14	-117.803	751.773	-18.2404	0.124871	0	-0.144406	-0.214872	1.37122	-0.0332703	0	0	0	0	0	0	0	0	0
0.15	-118.776	774.629	-21.0359	0.126879	0	-0.143993	-0.225657	1.47168	-0.039965	0	0	0	0	0	0	0	0	0
0.16	-117.794	791.28	-23.2977	0.128711	0	-0.143584	-0.232649	1.56282	-0.0460142	0	0	0	0	0	0	0	0	0
0.17	-115.008	801.976	-25.057	0.130369	0	-0.143165	-0.234588	1.63583	-0.05111	0	0	0	0	0	0	0	0	0
0.18	-110.613	807.046	-26.3878	0.13186	0	-0.142724	-0.230684	1.68309	-0.0550319	0	0	0	0	0	0	0	0	0
0.19	-104.837	806.936	-27.3846	0.133202	0	-0.142244	-0.220696	1.69871	-0.0576484	0	0	0	0	0	0	0	0	0
0.2	-97.9427	802.263	-28.136	0.134417	0	-0.14171	-0.204971	1.67895	-0.058882	0	0	0	0	0	0	0	0	0
0.21	-90.2158	793.798	-28.6997	0.135539	0	-0.141112	-0.184434	1.62281	-0.0586726	0	0	0	0	0	0	0	0	0
0.22	-81.9435	782.421	-29.0927	0.136608	0	-0.140442	-0.160458	1.5321	-0.0569681	0	0	0	0	0	0	0	0	0
0.23	-73.3993	769.043	-29.3008	0.137666	0	-0.139695	-0.134614	1.41042	-0.0537374	0	0	0	0	0	0	0	0	0
0.24	-64.82810000000001	754.559	-29.2975	0.138763	0	-0.138875	-0.108403	1.26175	-0.0489901	0	0	0	0	0	0	0	0	0
0.25	-56.43	739.7809999999999	-29.0595	0.139946	0	-0.137978	-0.08309610000000001	1.08937	-0.0427917	0	0	0	0	0	0	0	0	0
0.26	-48.353	725.405	-28.5813	0.141263	0	-0.13701	-0.0596748	0.895258	-0.0352736	0	0	0	0	0	0	0	0	0
0.27	-40.6975	711.9829999999999	-27.8877	0.142756	0	-0.135973	-0.0388654	0.679931	-0.0266323	0	0	0	0	0	0	0	0	0
0.28	-33.5284	699.915	-27.0404	0.144467	0	-0.134867	-0.0212135	0.442838	-0.0171085	0	0	0	0	0	0	0	0	0
0.29	-26.8849	689.4589999999999	-26.13	0.146433	0	-0.133696	-0.00714339	0.183191	-0.00694282	0	0	0	0	0	0	0	0	0
0.3	-20.7847	680.76	-25.2598	0.148683	0	-0.132462	0.00302273	-0.09900340000000001	0.00367355	0	0	0	0	0	0	0	0	0
0.31	-15.2243	673.886	-24.5275	0.151244	0	-0.131171	0.00909045	-0.402379	0.0146455	0	0	0	0	0	0	0	0	0
0.32	-10.1802	668.864	-24.0135	0.154129	0	-0.129836	0.0110264	-0.724463	0.0260096	0	0	0	0	0	0	0	0	0
0.33	-5.61296	665.697	-23.773	0.15734	0	-0.128473	0.00895484	-1.06205	0.0379271	0	0	0	0	0	0	0	0	0
0.34	-1.47148	664.385	-23.8347	0.160876	0	-0.127104	0.00312589	-1.41137	0.0506325	0	0	0	0	0	0	0	0	0
0.35	2.30466	664.927	-24.2016	0.164722	0	-0.125757	-0.00612892	-1.76828	0.0643609	0	0	0	0	0	0	0	0	0
0.36	5.78179	667.331	-24.8557	0.168861	0	-0.124461	-0.0184408	-2.12843	0.0792764	0	0	0	0	0	0	0	0	0
0.37	9.03013	671.612	-25.7633	0.173267	0	-0.123248	-0.0334437	-2.48736	0.0954161	0	0	0	0	0	0	0	0	0
0.38	12.1227	677.787	-26.8815	0.177913	0	-0.122146	-0.0508084	-2.84072	0.112665	0	0	0	0	0	0	0	0	0
0.39	15.1356	685.869	-28.1643	0.182766	0	-0.121186	-0.0702673	-3.18416	0.130753	0	0	0	0	0	0	0	0	0
0.4	18.149	695.853	-29.5657	0.187791	0	-0.120393	-0.0916288	-3.51315	0.149268	0	0	0	0	0	0	0	0	0
0.41	21.2454	707.705	-31.0408	0.192955	0	-0.119786	-0.114765	-3.82295	0.167679	0	0	0	0	0	0	0	0	0
0.42	24.5037	721.359	-32.5429	0.198227	0	-0.119379	-0.139563	-4.10856	0.185351	0	0	0	0	0	0	0	0	0
0.43	27.9922	736.704	-34.0195	0.203578	0	-0.119182	-0.165858	-4.36508	0.201571	0	0	0	0	0	0	0	0	0
0.44	31.7635	753.577	-35.4114	0.208985	0	-0.119198	-0.19339	-4.5881	0.2156	0	0	0	0	0	0	0	0	0
0.45	35.8527	771.742	-36.6526	0.214424	0	-0.119423	-0.221785	-4.774	0.226733	0	0	0	0	0	0	0	0	0
0.46	40.2799	790.866	-37.6724	0.219874	0	-0.119854	-0.250595	-4.92025	0.234373	0	0	0	0	0	0	0	0	0
0.47	45.0551	810.498	-38.3982	0.225313	0	-0.120476	-0.279362	-5.02545	0.238086	0	0	0	0	0	0	0	0	0
0.48	50.1812	830.056	-38.7597	0.230722	0	-0.121279	-0.307677	-5.08935	0.237649	0	0	0	0	0	0	0	0	0
0.49	55.6522	848.822	-38.6943	0.236078	0	-0.122241	-0.335228	-5.11299	0.23308	0	0	0	0	0	0	0	0	0
0.5	61.4494	865.953	-38.1515	0.241362	0	-0.123349	-0.361797	-5.09849	0.224626	0	0	0	0	0	0	0	0	0
0.51	67.5343	880.511	-37.0965	0.246562	0	-0.124581	-0.387256	-5.04904	0.212719	0	0	0	0	0	0	0	0	0
0.52	73.84050000000001	891.5170000000001	-35.5133	0.251661	0	-0.125921	-0.411529	-4.96861	0.197923	0	0	0	0	0	0	0	0	0
0.53	80.2677	897.991	-33.405	0.256649	0	-0.127351	-0.434592	-4.86198	0.180864	0	0	0	0	0	0	0	0	0
0.54	86.6814	899.0069999999999	-30.7936	0.261518	0	-0.128856	-0.456536	-4.73491	0.162184	4.24974	20.062	-6.37977	0.722733	0	-0.177474	0.0704321	0.332493	-0.105734
0.55	92.9105	893.737	-27.7205	0.26626	0	-0.130421	-0.477591	-4.59411	0.142492	2.82153	40.6731	-7.41677	0.761564	0	-0.205168	0.0325553	0.469294	-0.08557620000000001
0.5600000000000001	98.74160000000001	881.489	-24.2458	0.270875	0	-0.132034	-0.498107	-4.44671	0.122309	0.427569	66.851	-8.48194	0.783058	0	-0.21861	0.00336757	0.526523	-0.0668044
0.57	103.917	861.7380000000001	-20.4473	0.275364	0	-0.133684	-0.518467	-4.29943	0.102017	-3.16369	98.9943	-9.50719	0.795377	0	-0.225478	-0.0179892	0.562896	-0.0540593
0.58	108.14	834.178	-16.4209	0.279744	0	-0.135364	-0.538924	-4.1572	0.0818349	-8.19318	137.225	-10.3993	0.803711	0	-0.22959	-0.0354459	0.593672	-0.04499
0.59	111.099	798.76	-12.2839	0.284038	0	-0.137069	-0.559396	-4.02186	0.0618512	-14.8854	181.312	-11.0454	0.810006	0	-0.232329	-0.0512526	0.624282	-0.0380311
0.6	112.502	755.749	-8.17967	0.288282	0	-0.138794	-0.579255	-3.89125	0.042116	-23.3213	230.683	-11.3147	0.815159	0	-0.234317	-0.0665356	0.658138	-0.0322808
0.61	112.114	705.7670000000001	-4.27735	0.292514	0	-0.140536	-0.597131	-3.75897	0.0227815	-33.3284	284.462	-11.0594	0.819622	0	-0.235872	-0.08173519999999999	0.69762	-0.0271222
0.62	109.796	649.8	-0.761194	0.296781	0	-0.142287	-0.610868	-3.61527	0.00423503	-44.5357	341.49	-10.1367	0.823639	0	-0.237169	-0.09688090000000001	0.742862	-0.0220508
0.63	105.528	589.174	2.19114	0.301125	0	-0.144042	-0.6178129999999999	-3.44931	-0.012828	-56.4855	400.351	-8.44374	0.827346	0	-0.238303	-0.111701	0.791698	-0.0166976
0.64	99.4333	525.4690000000001	4.43863	0.305588	0	-0.145788	-0.615377	-3.25204	-0.0274699	-68.67910000000001	459.454	-5.95348	0.830817	0	-0.239326	-0.125608	0.840298	-0.0108884
0.65	91.7578	460.406	5.90839	0.310219	0	-0.147516	-0.601674	-3.01897	-0.0387425	-80.5813	517.151	-2.73643	0.834087	0	-0.240257	-0.13761	0.883145	-0.00467304
0.66	82.8379	395.732	6.61462	0.315084	0	-0.149225	-0.576007	-2.75169	-0.0459943	-91.6571	571.875	1.03418	0.837161	0	-0.241105	-0.146349	0.913113	0.00165128
0.67	73.0566	333.113	6.65702	0.320284	0	-0.150923	-0.53892	-2.45729	-0.0491072	-101.412	622.24	5.10178	0.840029	0	-0.241865	-0.15053	0.923615	0.00757276
0.68	62.8245	274.038	6.19609	0.325972	0	-0.152639	-0.492061	-2.14635	-0.0485297	-109.416	667.111	9.179970000000001	0.84267	0	-0.242534	-0.149665	0.912512	0.0125569
0.6899999999999999	52.572	219.708	5.41316	0.332385	0	-0.154428	-0.438012	-1.83054	-0.0451007	-115.348	705.679	13.0182	0.845066	0	-0.243113	-0.144582	0.8845229999999999	0.0163175
0.7	42.7108	170.979	4.47543	0.339908	0	-0.156384	-0.379944	-1.52098	-0.0398123	-119.049	737.505	16.4467	0.847211	0	-0.243605	-0.137308	0.850622	0.0189693
0.71	33.5823	128.341	3.51643	0.349205	0	-0.158662	-0.321164	-1.22739	-0.0336293	-120.499	762.476	19.3788	0.849112	0	-0.244021	-0.13027	0.824301	0.0209501
0.72	25.4259	91.9498	2.62883	0.361566	0	-0.161556	-0.264889	-0.95794	-0.0273874	-119.78	780.7140000000001	21.7934	0.850776	0	-0.244372	-0.1255	0.817993	0.0228341
0.73	18.3743	61.6883	1.86421	0.37986	0	-0.165709	-0.214449	-0.719971	-0.0217574	-117.037	792.4930000000001	23.719	0.852217	0	-0.244667	-0.124278	0.8415280000000001	0.0251866
0.74	12.4665	37.2342	1.24109	0.41193	0	-0.172915	-0.174619	-0.521541	-0.017384	-112.474	798.201	25.216	0.853455	0	-0.244916	-0.126987	0.9012	0.0284699
0.75	0	0	0	0	0	0	0	0	0	-106.352	798.356	26.3588	0.854518	0	-0.245127	-0.133138	0.999427	0.0329975
